<svg xmlns="http://www.w3.org/2000/svg" xmlns:xlink="http://www.w3.org/1999/xlink" id="Layer_1" x="0px" y="0px" viewBox="0 0 100 100" style="enable-background:new 0 0 100 100;" xml:space="preserve">
<style type="text/css">
	.st0{fill:none;stroke:#000000;stroke-linecap:round;stroke-miterlimit:10;}
	.st1{fill:#77DCB4;}
</style>
<g>
	<path class="st0" d="M71.5,11.43V7.65c0-2.76-2.23-4.99-4.99-4.99H21.68c-2.76,0-4.99,2.23-4.99,4.99v84.53   c0,2.76,2.23,4.99,4.99,4.99h44.82c2.76,0,4.99-2.23,4.99-4.99V60.15"></path>
	<path d="M53.01,13.14c8.79,0,17.57,0,26.36,0c2.55,0,3.52,0.96,3.52,3.48c0,12.05,0,24.1,0,36.15c0,2.42-1.02,3.44-3.46,3.44   c-10.04,0-20.07,0.01-30.11-0.02c-0.83,0-1.42,0.23-2,0.83c-3.99,4.04-8.02,8.05-12.05,12.06c-0.51,0.51-0.98,1.15-1.85,0.74   c-0.82-0.38-0.77-1.15-0.77-1.88c0-3.47-0.05-6.93,0.03-10.4c0.03-1.16-0.36-1.41-1.42-1.36c-1.69,0.08-3.38,0.03-5.08,0.02   c-1.98-0.02-3.05-1.05-3.16-3.03c-0.01-0.24,0-0.48,0-0.73c0-11.85,0-23.7,0-35.55c0-0.28-0.01-0.57,0.01-0.85   c0.13-1.91,1.19-2.92,3.13-2.92C35.11,13.13,44.06,13.14,53.01,13.14z M35.59,65.77c0.33-0.51,0.51-0.94,0.82-1.25   c3.18-3.21,6.39-6.37,9.55-9.6c0.79-0.81,1.59-1.17,2.74-1.16c10.15,0.04,20.31,0.01,30.46,0.04c0.95,0,1.33-0.19,1.33-1.25   c-0.04-11.93-0.03-23.85,0-35.78c0-0.95-0.26-1.24-1.22-1.23c-17.53,0.03-35.05,0.03-52.58,0c-0.87,0-1.19,0.19-1.19,1.13   c0.03,12.01,0.03,24.01,0.01,36.02c0,0.82,0.21,1.14,1.08,1.11c2.21-0.05,4.43-0.02,6.65-0.02c1.59,0,1.89,0.3,1.9,1.92   c0.02,2.82,0,5.64,0.01,8.46C35.14,64.55,35.02,64.97,35.59,65.77z"></path>
	<path class="st1" d="M60.47,43.07c-0.36,0-0.46,0-0.56,0c-0.6,0.01-1.27-0.14-1.8,0.07c-0.69,0.27-0.26,1.07-0.4,1.62   c-0.59,2.3-2.68,3.76-5.26,3.61c-2.17-0.12-4.16-2.02-4.32-4.32c-0.06-0.91-0.41-1.01-1.16-1c-1.24,0.02-2.48,0.09-3.72-0.1   c-1.53-0.25-2.66-1.28-2.83-2.7c-0.19-1.55,0.52-2.99,1.96-3.49c1.2-0.42,1.57-1.14,1.51-2.35c-0.1-1.94-0.11-3.89,0.71-5.74   c1.22-2.75,3.26-4.57,6.18-5.3c0.84-0.21,1.32-0.45,1.16-1.42c-0.12-0.74,0.23-1.32,1.01-1.32c0.79,0.01,1.1,0.6,0.99,1.34   c-0.13,0.88,0.25,1.19,1.08,1.38c4.16,0.95,6.94,4.45,6.99,8.7c0.01,0.91,0.04,1.82-0.01,2.72c-0.04,0.89,0.3,1.46,1.14,1.79   c1.19,0.46,2.06,1.21,2.33,2.54c0.35,1.68-0.77,3.46-2.46,3.81C62.1,43.1,61.16,43.09,60.47,43.07z M54.6,25.34   c-3.71-1.15-7.84,1.52-8.55,5.49c-0.27,1.5-0.12,3.01-0.17,4.51c-0.04,1.38-0.68,2.34-1.92,2.93c-0.27,0.13-0.56,0.23-0.83,0.37   c-0.59,0.29-0.83,0.8-0.67,1.42c0.15,0.57,0.57,0.88,1.19,0.88c0.87,0,1.74-0.01,2.61-0.01c0.81,0,1.61-0.01,2.42-0.01   c2.35,0.01,4.7,0.02,7.04,0.03c2.15,0,4.29,0,6.44,0c0.64,0,1.12-0.24,1.25-0.92c0.12-0.63-0.08-1.12-0.7-1.4   c-0.09-0.04-0.18-0.09-0.27-0.13c-1.8-0.69-2.59-2-2.47-3.92c0.06-0.94,0.05-1.88-0.01-2.82c-0.13-2.03-0.89-3.76-2.56-5   C56.64,25.96,55.7,25.49,54.6,25.34z M53.08,42.95c-0.74,0-1.48,0.02-2.21,0c-0.56-0.02-0.77,0.23-0.76,0.79   c0.04,1.42,1.45,2.67,3,2.63c1.51-0.04,2.69-1.26,2.67-2.7c-0.01-0.51-0.16-0.74-0.69-0.72C54.42,42.97,53.75,42.95,53.08,42.95z"></path>
	<circle class="st1" cx="44.1" cy="88.65" r="4.42"></circle>
	<line class="st0" x1="16.69" y1="80.65" x2="71.5" y2="80.65"></line>
</g>
</svg>