<svg xmlns="http://www.w3.org/2000/svg" xmlns:xlink="http://www.w3.org/1999/xlink" id="Layer_1" x="0px" y="0px" viewBox="0 0 100 100" style="enable-background:new 0 0 100 100;" xml:space="preserve">
<style type="text/css">
	.st0{fill:none;stroke:#77DCB4;stroke-width:4;stroke-linecap:round;stroke-miterlimit:10;}
	.st1{fill:#77DCB4;}
	.st2{fill:none;}
</style>
<g>
	<path d="M57.45,4.81c1.81,0.58,3.15,1.64,3.53,3.61c0.08,0.42,0.09,0.85,0.15,1.39c0.31,0,0.61,0,0.92,0c4.4,0,8.8,0,13.2,0   c3.14,0,4.91,1.77,4.92,4.92c0.01,4.51,0.01,9.03,0,13.54c0,3.43-1.68,5.11-5.14,5.16c-0.2,0-0.39,0.02-0.7,0.04   c0,0.97,0,1.91,0,2.85c0,0.67-0.13,1.26-0.77,1.62c-0.65,0.37-1.21,0.11-1.77-0.24c-2.01-1.29-4.01-2.58-6.04-3.83   c-0.41-0.25-0.95-0.41-1.43-0.41c-4.57-0.03-9.15-0.09-13.72,0.01c-2.91,0.06-5.29-1.53-5.29-5.02c-1.83,0.18-3.69-0.45-5.42,0.86   c-1.66,1.27-3.52,2.28-5.28,3.42c-0.56,0.36-1.13,0.6-1.77,0.23c-0.63-0.36-0.76-0.96-0.75-1.63c0.01-0.92,0-1.83,0-2.88   c-0.41,0-0.77,0-1.13,0c-2.79-0.04-4.66-1.78-4.7-4.54c-0.06-4.86-0.05-9.72,0-14.58c0.02-2.38,1.4-3.78,3.57-4.51   C39.04,4.81,48.24,4.81,57.45,4.81z M71.46,34.11c0-0.68-0.01-1.16,0-1.64c0.02-1.37,0.52-1.88,1.87-1.91c0.6-0.01,1.21,0,1.81,0   c1.68-0.01,2.17-0.48,2.17-2.14c0-4.54,0-9.08,0-13.62c0-1.65-0.52-2.19-2.15-2.19c-8.28,0-16.56,0-24.83,0   c-1.61,0-2.17,0.56-2.17,2.19c0,4.51,0,9.03,0,13.54c0,1.71,0.5,2.22,2.2,2.22c4.8,0,9.6-0.02,14.4,0.03   c0.7,0.01,1.46,0.27,2.08,0.62C68.36,32.07,69.8,33.06,71.46,34.11z M45.31,20.8c-0.35,0-0.66,0-0.97,0c-2.93,0-5.87,0-8.8,0   c-0.37,0-0.75-0.02-1.11-0.1c-0.64-0.14-0.98-0.59-1.02-1.23c-0.04-0.67,0.25-1.19,0.91-1.39c0.35-0.11,0.73-0.13,1.1-0.13   c2.99-0.01,5.98-0.01,8.97-0.01c0.3,0,0.61,0,0.92,0c0-0.84,0-1.55,0-2.37c-0.35,0-0.66,0-0.96,0c-2.93,0-5.87,0-8.8,0   c-0.32,0-0.63,0-0.95-0.04c-0.73-0.09-1.14-0.54-1.19-1.25c-0.06-0.76,0.33-1.27,1.06-1.46c0.3-0.08,0.63-0.06,0.94-0.06   c3.16,0,6.33-0.01,9.49,0c0.44,0,0.71-0.08,0.94-0.52c0.82-1.6,2.17-2.41,3.97-2.42c2.47-0.02,4.95-0.01,7.42-0.01   c0.31,0,0.62,0,0.91,0c0.19-1.51-0.43-2.17-1.98-2.17c-8.34-0.01-16.68,0-25.02,0c-0.11,0-0.23,0-0.34,0.01   c-1.13,0.1-1.68,0.64-1.68,1.77c-0.01,4.8-0.01,9.61,0,14.41c0,1.17,0.57,1.72,1.76,1.76c0.78,0.03,1.55-0.01,2.33,0.01   c1.22,0.04,1.7,0.53,1.74,1.76c0.02,0.53,0,1.06,0,1.78c1.24-0.79,2.35-1.39,3.34-2.15c1.44-1.11,3-1.61,4.81-1.41   c0.72,0.08,1.46,0.01,2.2,0.01C45.31,23.92,45.31,22.41,45.31,20.8z"></path>
	<path d="M37.8,65c1.3,0.9,2.74,1.66,3.9,2.73c2.1,1.93,2.91,4.49,2.91,7.31c0,5.38,0,10.75,0,16.13c0,1.56-0.45,2.01-2,2.01   c-8.77,0-17.54,0-26.31,0c-1.55,0-1.99-0.44-2-2c0-5.26,0.09-10.53-0.03-15.78c-0.1-4.65,2.49-8.64,6.74-10.06   c0.08-0.03,0.15-0.09,0.29-0.18c-4.29-3.24-6.51-7.49-6.2-12.89c0.24-4.05,2.01-7.39,5.06-10.03c5.86-5.06,14.77-4.38,20.03,1.43   C45.32,49.31,45.47,59.43,37.8,65z M29.43,64.79c6.35,0.02,11.61-5.23,11.6-11.58c-0.01-6.33-5.15-11.48-11.53-11.56   c-6.34-0.08-11.59,5.14-11.61,11.54C17.86,59.57,23.03,64.78,29.43,64.79z M31.23,74.61c-1.28,0.95-2.41,1.81-3.57,2.65   c-1.17,0.85-2.16,0.5-2.53-0.89c-0.29-1.11-0.56-2.23-0.83-3.34c-0.43-1.74-0.87-3.49-1.32-5.33c-0.56,0.17-1.04,0.26-1.47,0.45   c-2.98,1.31-4.39,3.66-4.4,6.87c-0.02,4.83-0.01,9.66,0,14.49c0,0.25,0.04,0.5,0.06,0.76c1.39,0,2.71,0,4.11,0c0-0.42,0-0.76,0-1.1   c0-4.02,0-8.05,0-12.07c0-0.37,0.02-0.75,0.08-1.11c0.13-0.69,0.61-1.05,1.27-1.09c0.67-0.04,1.17,0.3,1.37,0.95   c0.1,0.35,0.12,0.73,0.12,1.1c0.01,4.14,0,8.28,0.01,12.42c0,0.3,0.03,0.61,0.04,0.91c2.4,0,4.71,0,7.07,0   C31.23,85.09,31.23,79.95,31.23,74.61z M41.05,71.35c-0.1,0.03-0.2,0.06-0.29,0.08c-0.17,1.66-0.3,3.32-0.52,4.97   c-0.17,1.24-1.27,1.7-2.3,0.98c-1.04-0.72-2.03-1.5-3.05-2.25c-0.21-0.15-0.43-0.29-0.69-0.47c0,5.3,0,10.46,0,15.62   c2.54,0,5.02,0,7.53,0c0-5.5,0.03-10.93-0.03-16.36C41.69,73.07,41.27,72.21,41.05,71.35z M25.91,67.72c0.5,2.03,1,4.06,1.53,6.18   c1.11-0.83,2.12-1.58,3.19-2.37c-0.93-1.07-1.86-2.05-2.69-3.11C27.41,67.76,26.84,67.46,25.91,67.72z M34.78,71.52   c0.95,0.71,1.86,1.38,2.9,2.16c0.16-1.75,0.32-3.28,0.44-4.82c0.01-0.16-0.15-0.47-0.23-0.47c-0.19,0-0.43,0.1-0.56,0.24   C36.5,69.55,35.69,70.49,34.78,71.52z M32.7,69.59c0.56-0.64,1.08-1.23,1.67-1.91c-1.17,0-2.18,0-3.34,0   C31.63,68.36,32.15,68.95,32.7,69.59z"></path>
	<path d="M67.61,65.16c-8.27-5.87-7.58-16.71-1.96-22.18c5.7-5.55,14.73-5.51,20.35,0.07c5.56,5.51,6.19,16.2-1.93,22.03   c1.04,0.62,2.19,1.16,3.18,1.92c2.31,1.78,3.6,4.22,3.64,7.12c0.09,5.84,0.05,11.67,0.04,17.51c0,0.99-0.57,1.51-1.59,1.53   c-1.26,0.02-2.53,0.01-3.8,0.01c-7.62,0-15.24,0-22.86,0c-1.61,0-2.05-0.43-2.05-2.04c0-5.23,0.06-10.47-0.02-15.7   c-0.08-4.93,2.62-8.71,6.7-10.09C67.42,65.31,67.51,65.23,67.61,65.16z M75.69,64.79c6.27,0.15,11.53-5,11.66-11.39   c0.13-6.36-4.9-11.54-11.4-11.74c-6.26-0.19-11.59,5.01-11.73,11.44C64.08,59.39,69.23,64.64,75.69,64.79z M63.48,90.3   c5.65,0,11.19,0,16.83,0c0-0.39,0-0.73,0-1.07c0-4.06,0-8.11,0-12.17c0-0.37,0.01-0.75,0.08-1.11c0.13-0.64,0.61-1.09,1.21-1.01   c0.49,0.06,1,0.44,1.37,0.81c0.21,0.22,0.17,0.71,0.18,1.07c0.02,0.91,0.01,1.82,0.01,2.79c1.55,0,2.98,0.02,4.42-0.02   c0.19-0.01,0.53-0.35,0.53-0.54c0.01-1.81,0.05-3.63-0.1-5.43c-0.2-2.43-2.17-4.83-4.25-5.37c-1.72,3.15-4.35,4.96-7.98,4.95   c-3.66-0.01-6.29-1.87-8.01-5.06c-2.74,1.35-4.22,3.46-4.26,6.45c-0.05,3.68-0.01,7.36-0.01,11.04   C63.48,87.17,63.48,88.7,63.48,90.3z M88.07,90.31c0-2.66,0-5.23,0-7.79c-1.66,0-3.25,0-4.84,0c0,2.62,0,5.19,0,7.79   C84.85,90.31,86.42,90.31,88.07,90.31z M80.76,67.63c-1.75,0-3.38,0-5.02,0c-1.61,0-3.23,0-4.93,0   C73.16,71.29,78.58,71.28,80.76,67.63z"></path>
	<path d="M62.76,20.56c-2.73,0-5.46,0-8.19,0c-0.32,0-0.64,0.01-0.95-0.04c-0.72-0.12-1.12-0.61-1.15-1.31   c-0.03-0.71,0.36-1.2,1.05-1.4c0.27-0.08,0.57-0.06,0.86-0.06c5.57,0,11.15,0,16.72,0c0.26,0,0.52-0.02,0.77,0.04   c0.74,0.16,1.16,0.63,1.14,1.4c-0.02,0.76-0.44,1.22-1.2,1.34c-0.28,0.04-0.57,0.03-0.86,0.03C68.22,20.56,65.49,20.56,62.76,20.56   z"></path>
	<path d="M62.79,22.93c2.79,0,5.57-0.01,8.36,0.01c0.37,0,0.76,0.04,1.09,0.18c0.6,0.25,0.84,0.76,0.77,1.4   c-0.07,0.64-0.44,1.05-1.07,1.18c-0.33,0.06-0.69,0.06-1.03,0.06c-5.43,0-10.86,0-16.29,0c-0.11,0-0.23,0-0.34,0   c-1.15-0.03-1.8-0.53-1.81-1.4c0-0.87,0.67-1.42,1.8-1.42c2.21-0.01,4.43,0,6.64,0C61.52,22.93,62.16,22.93,62.79,22.93z"></path>
	<path d="M29,51.15c-0.01,0.76-0.6,1.35-1.37,1.36c-0.79,0.01-1.43-0.62-1.42-1.41c0.01-0.73,0.65-1.37,1.38-1.38   C28.37,49.7,29.02,50.36,29,51.15z"></path>
	<path d="M36.91,52.52c-0.77,0.01-1.38-0.56-1.41-1.32c-0.03-0.79,0.58-1.46,1.36-1.47c0.77-0.01,1.43,0.65,1.42,1.43   C38.28,51.89,37.67,52.5,36.91,52.52z"></path>
	<path d="M69.72,56.96c-0.01-1.04,0.98-1.62,1.72-1.07c1.11,0.81,2.11,0.85,3.21,0.01c0.49-0.38,1.05-0.3,1.46,0.18   c0.45,0.52,0.36,1.06-0.09,1.55c-1.44,1.58-4.44,1.59-5.91,0.01C69.91,57.41,69.8,57.1,69.72,56.96z"></path>
	<path d="M79.02,51.15c-0.01,0.75-0.62,1.36-1.38,1.37c-0.8,0.01-1.42-0.61-1.41-1.41c0.01-0.77,0.6-1.37,1.36-1.39   C78.35,49.7,79.02,50.38,79.02,51.15z"></path>
	<path d="M68.37,49.73c0.78,0.01,1.38,0.66,1.35,1.47c-0.03,0.76-0.65,1.34-1.41,1.31c-0.75-0.02-1.37-0.64-1.37-1.37   C66.94,50.38,67.6,49.72,68.37,49.73z"></path>
	<line class="st0" x1="53.45" y1="19.16" x2="71.85" y2="19.16"></line>
	<line class="st0" x1="53.45" y1="24.26" x2="71.85" y2="24.26"></line>
	<g>
		<path class="st1" d="M45.73,12.34L45.4,13l-0.14,0.29v2.48H34.82c-0.94,0-1.72-0.77-1.72-1.72c0-0.95,0.77-1.72,1.72-1.72H45.73z"></path>
	</g>
	<g>
		<path class="st1" d="M45.26,17.44v3.44H34.82c-0.94,0-1.72-0.77-1.72-1.72c0-0.95,0.77-1.72,1.72-1.72H45.26z"></path>
	</g>
	<line class="st2" x1="45.26" y1="17.44" x2="45.26" y2="15.78"></line>
	<polygon points="36.9,78.27 37.59,79.67 39.14,79.89 38.02,80.99 38.28,82.53 36.9,81.8 35.51,82.53 35.78,80.99 34.66,79.89    36.21,79.67  "></polygon>
</g>
</svg>