<svg xmlns="http://www.w3.org/2000/svg" xmlns:xlink="http://www.w3.org/1999/xlink" id="Layer_1" x="0px" y="0px" viewBox="0 0 100 100" style="enable-background:new 0 0 100 100;" xml:space="preserve">
<style type="text/css">
	.st0{fill:none;stroke:#000000;stroke-miterlimit:10;}
	.st1{stroke:#000000;stroke-width:0.5;stroke-miterlimit:10;}
	.st2{fill:#77DCB4;}
</style>
<g>
	<g>
		<g>
			<path class="st0" d="M58.05,94.57c-1.05-0.08-2.09-0.14-3.14-0.23c-4.28-0.37-8.49-1.06-12.4-2.97c-1.49-0.73-2.87-1.61-3.9-2.94     c-0.2-0.26-0.37-0.65-0.36-0.97c0.05-3.38,0.06-6.77,0.64-10.11c0.43-2.48,1.19-4.82,2.97-6.7c1.25-1.32,2.77-2.2,4.43-2.88     c2.41-0.99,4.95-1.55,7.5-2.02c0.16-0.03,0.41,0.06,0.53,0.18c1.48,1.37,3.27,2,5.25,2.16c1.98,0.16,3.9-0.07,5.66-1.04     c0.56-0.31,1.05-0.76,1.59-1.12c0.15-0.1,0.37-0.21,0.54-0.17c2.61,0.48,5.2,1.05,7.66,2.08c2.36,0.99,4.38,2.41,5.66,4.71     c0.94,1.69,1.5,3.53,1.66,5.44c0.27,3.14,0.41,6.29,0.56,9.43c0.02,0.34-0.14,0.75-0.36,1.03c-1.35,1.7-3.2,2.7-5.15,3.51     c-3.6,1.49-7.4,2.1-11.26,2.41c-0.97,0.08-1.94,0.15-2.91,0.23C61.49,94.57,59.77,94.57,58.05,94.57z"></path>
			<path class="st0" d="M48.78,49.17c0.05-2.22,0.22-4.42,0.91-6.56c1.25-3.89,4-5.96,7.96-6.54c2.46-0.36,4.91-0.32,7.33,0.31     c3.19,0.84,5.39,2.81,6.35,5.94c1.33,4.32,1.58,8.72,0.23,13.09c-1.16,3.73-3.35,6.7-7.03,8.29c-3.42,1.49-6.74,1.07-9.78-1.04     c-3.15-2.18-4.88-5.31-5.61-9c-0.29-1.47-0.34-2.99-0.49-4.48C48.68,49.18,48.73,49.18,48.78,49.17z"></path>
		</g>
		<path d="M54.36,66.74l-2.18,2.51l6.22,4.36l2.27-4.69C60.67,68.92,58.4,69.9,54.36,66.74z"></path>
		<path d="M66.85,66.74l2.18,2.51l-6.22,4.36l-2.27-4.69C60.55,68.92,62.82,69.9,66.85,66.74z"></path>
		<line class="st1" x1="60.67" y1="68.92" x2="60.67" y2="93.57"></line>
		<path d="M72.49,83.73H72.1c-1.09,0-1.97-0.88-1.97-1.97v-1.25c0-0.62,0.5-1.12,1.12-1.12h2.1c0.62,0,1.12,0.5,1.12,1.12v1.25    C74.46,82.84,73.58,83.73,72.49,83.73z"></path>
	</g>
	<path class="st2" d="M69.1,19.43h-0.85c-1.69,0-3.06-1.37-3.06-3.06v-2.04c0-1.69,1.37-3.06,3.06-3.06h0.85   c1.69,0,3.06,1.37,3.06,3.06v2.04C72.17,18.06,70.8,19.43,69.1,19.43z"></path>
	<path class="st2" d="M22.92,19.43h-0.85c-1.69,0-3.06-1.37-3.06-3.06v-2.04c0-1.69,1.37-3.06,3.06-3.06h0.85   c1.69,0,3.06,1.37,3.06,3.06v2.04C25.99,18.06,24.61,19.43,22.92,19.43z"></path>
	<path class="st2" d="M26.56,7.52c0,0,13.6-3.31,18.92,6.33v3.74c0,0-11.94-8.78-18.92-5.9V7.52z"></path>
	<path class="st2" d="M64.4,7.52c0,0-13.6-3.31-18.92,6.33v3.74c0,0,11.94-8.78,18.92-5.9V7.52z"></path>
	<path d="M60.81,5.15c0.51,0.07,1.01,0.16,1.52,0.22c2.1,0.26,3.47,1.77,3.51,3.89c0.01,0.29,0,0.59,0,0.98c0.46,0,0.86,0,1.27,0   c0.93,0,1.87-0.02,2.8,0.02c1.89,0.08,3.51,1.64,3.53,3.53c0.04,5.16,0.03,10.32,0.02,15.48c0,0.78-0.54,1.28-1.27,1.28   c-0.76-0.01-1.25-0.56-1.25-1.43c0-4.84,0-9.69,0-14.53c0-1.44-0.37-1.81-1.78-1.81c-1.07,0-2.14,0-3.31,0c0,0.26,0,0.49,0,0.72   c0,4.23,0,8.46,0,12.69c0,0.22,0.01,0.44-0.01,0.65c-0.06,0.69-0.59,1.19-1.25,1.19c-0.65,0-1.2-0.51-1.26-1.19   c-0.02-0.2-0.01-0.4-0.01-0.6c0-5.6,0-11.2,0-16.79c0-1-0.41-1.43-1.4-1.57c-5.21-0.72-9.78,0.79-13.96,3.85   c-0.87,0.64-1.21,1.29-1.2,2.39c0.06,6.59,0.03,13.18,0.03,19.77c0,1.15-0.41,1.73-1.24,1.75c-0.84,0.02-1.3-0.6-1.3-1.76   c0-6.89,0-13.78-0.01-20.67c0-0.27-0.13-0.64-0.33-0.8c-2.93-2.41-6.2-4.17-10.03-4.55c-1.64-0.17-3.32-0.02-4.98,0.05   c-0.73,0.03-1.15,0.61-1.17,1.41c-0.02,1.01,0,2.02,0,3.03c0,8.71,0,17.43,0,26.14c0,1.48,0.49,1.87,1.98,1.73   c3.7-0.33,7.23,0.28,10.59,1.88c0.91,0.43,1.23,1.12,0.87,1.85c-0.35,0.7-1.07,0.88-1.95,0.46c-2.61-1.24-5.36-1.8-8.25-1.73   c-0.55,0.01-1.11,0.09-1.66,0.11c-2.39,0.1-4.11-1.53-4.11-3.92c-0.01-8.44,0-16.87,0-25.31c0-0.24,0-0.47,0-0.8   c-0.63,0-1.24,0-1.84,0c-0.64,0-1.27-0.01-1.91,0c-0.77,0.02-1.26,0.49-1.33,1.25c-0.02,0.18-0.01,0.36-0.01,0.54   c0,9.83,0,19.65,0,29.48c0,0.1,0,0.2,0,0.3c0.03,0.99,0.48,1.45,1.48,1.46c2.46,0.01,4.92,0,7.38,0c3.24,0,6.47,0,9.71,0   c0.22,0,0.44-0.01,0.65,0.03c0.67,0.11,1.12,0.63,1.11,1.27c-0.01,0.62-0.44,1.12-1.08,1.23c-0.23,0.04-0.47,0.04-0.71,0.04   c-5.46,0-10.92,0-16.38,0c-2.75,0-3.73-0.66-4.7-3.19c0-10.6,0-21.2,0-31.81c0.14-0.34,0.25-0.71,0.42-1.03   c0.73-1.35,1.87-2.07,3.42-2.09c1.24-0.02,2.49,0,3.78,0c0-0.37,0-0.66,0-0.96c0.02-2.09,1.42-3.66,3.49-3.91   c0.51-0.06,1.01-0.15,1.52-0.22c0.95,0,1.91,0,2.86,0c0.37,0.05,0.74,0.11,1.11,0.16c3.97,0.52,7.47,2.14,10.64,4.55   c0.73,0.55,0.75,0.55,1.48-0.01c2.75-2.09,5.77-3.6,9.17-4.29c0.83-0.17,1.67-0.27,2.51-0.41C58.91,5.15,59.86,5.15,60.81,5.15z"></path>
</g>
</svg>