<svg xmlns="http://www.w3.org/2000/svg" xmlns:xlink="http://www.w3.org/1999/xlink" id="Layer_1" x="0px" y="0px" viewBox="0 0 100 100" style="enable-background:new 0 0 100 100;" xml:space="preserve">
<style type="text/css">
	.st0{fill:#FFFFFF;}
	.st1{fill:none;stroke:#000000;stroke-linecap:round;stroke-miterlimit:10;}
	.st2{fill:none;stroke:#77DCB4;stroke-linecap:round;stroke-miterlimit:10;}
	.st3{fill:#77DCB4;}
</style>
<g>
	<path d="M27.46,43.53c1.15,0.21,2.31,0.34,3.43,0.64c7.11,1.89,12.39,8.23,13.04,15.55c0.4,4.51-0.84,8.58-3.21,12.37   c-2.05,3.27-4.51,6.25-6.87,9.3c-0.38,0.49-0.77,0.99-1.2,1.54c0.87,0.17,1.69,0.32,2.49,0.5c1.98,0.44,3.92,1.03,5.66,2.1   c0.76,0.47,1.5,1.03,2.11,1.69c1.49,1.61,1.45,3.59,0,5.23c-0.92,1.04-2.08,1.73-3.33,2.3c-2.52,1.14-5.19,1.72-7.91,2.06   c-4.29,0.53-8.56,0.47-12.82-0.29c-2.67-0.48-5.29-1.15-7.6-2.64c-0.71-0.45-1.38-1.03-1.92-1.67c-1.25-1.47-1.23-3.27-0.03-4.79   c1.04-1.31,2.45-2.1,3.96-2.74c1.97-0.84,4.03-1.33,6.14-1.67c0.1-0.02,0.19-0.04,0.37-0.07c-0.17-0.23-0.3-0.4-0.43-0.58   c-2.32-3.06-4.69-6.07-6.93-9.19c-1.85-2.57-3.16-5.4-3.73-8.56c-1.74-9.54,4.51-18.82,14.02-20.74c0.71-0.14,1.44-0.23,2.16-0.35   C25.72,43.53,26.59,43.53,27.46,43.53z M26.19,87.99c0.13-0.15,0.21-0.25,0.3-0.36c2.09-2.75,4.2-5.48,6.27-8.25   c2.08-2.78,4.22-5.52,6.14-8.4c2.43-3.64,3.49-7.67,2.82-12.09c-1.43-9.46-11.3-15.53-20.36-12.5   c-8.71,2.91-13.11,12.36-9.76,20.95c1.02,2.63,2.6,4.93,4.29,7.16c3.12,4.11,6.28,8.19,9.42,12.29   C25.6,87.16,25.88,87.56,26.19,87.99z M26.18,95.07c0.98-0.06,2.62-0.11,4.25-0.25c2.56-0.23,5.07-0.73,7.48-1.65   c1.19-0.46,2.35-1,3.27-1.92c0.97-0.97,1-1.93-0.01-2.85c-0.55-0.5-1.17-0.94-1.83-1.29c-2.46-1.3-5.14-1.83-7.86-2.2   c-0.18-0.02-0.46,0.14-0.58,0.3c-1.23,1.63-2.44,3.27-3.64,4.92c-0.71,0.97-1.41,0.97-2.11,0.01c-1.2-1.65-2.42-3.29-3.62-4.94   c-0.19-0.26-0.38-0.36-0.7-0.3c-1.62,0.35-3.25,0.62-4.85,1.04c-1.67,0.45-3.28,1.1-4.59,2.29c-1.2,1.08-1.24,2.16,0.03,3.16   c0.85,0.67,1.83,1.23,2.83,1.64C17.85,94.52,21.66,94.93,26.18,95.07z"></path>
	<path d="M33.53,61.31c0.01,4.04-3.27,7.34-7.3,7.35c-4.06,0.02-7.37-3.28-7.36-7.33c0-4.03,3.29-7.32,7.32-7.33   C30.23,53.99,33.53,57.28,33.53,61.31z M31.44,61.32c-0.01-2.88-2.36-5.22-5.23-5.22c-2.89,0-5.25,2.37-5.24,5.27   c0.02,2.87,2.38,5.21,5.26,5.2C29.1,66.55,31.45,64.19,31.44,61.32z"></path>
	<path d="M39.82,60.9c0,0.2,0.01,0.36,0,0.52c-0.03,0.6-0.46,1.04-1.02,1.05c-0.57,0.01-1.06-0.44-1.06-1.06   c-0.01-1.37-0.22-2.71-0.7-4c-1.24-3.28-3.5-5.57-6.76-6.86c-0.63-0.25-0.94-0.63-0.89-1.14c0.07-0.75,0.77-1.14,1.56-0.84   c3.07,1.16,5.43,3.16,7.07,6C39.16,56.54,39.73,58.67,39.82,60.9z"></path>
	<path d="M26.27,49.81c-0.58-0.02-1.04-0.52-1-1.1c0.03-0.56,0.51-1,1.07-0.98c0.55,0.02,1.02,0.5,1.01,1.05   C27.34,49.34,26.84,49.82,26.27,49.81z"></path>
	<path class="st0" d="M31.44,61.32c0.01,2.87-2.34,5.23-5.21,5.25c-2.87,0.01-5.24-2.33-5.26-5.2c-0.02-2.9,2.34-5.27,5.24-5.27   C29.08,56.09,31.43,58.44,31.44,61.32z"></path>
	<line class="st1" x1="26.72" y1="16.54" x2="91.62" y2="16.54"></line>
	<line class="st2" x1="33.59" y1="28.22" x2="86.71" y2="28.22"></line>
	<line class="st2" x1="33.59" y1="10.73" x2="45.29" y2="10.73"></line>
	<line class="st2" x1="42.64" y1="43.53" x2="86.71" y2="43.53"></line>
	<line class="st2" x1="49.07" y1="59.65" x2="86.71" y2="59.65"></line>
	<line class="st2" x1="45.29" y1="77.03" x2="86.71" y2="77.03"></line>
	<polygon points="81.8,2.85 81.8,12.75 91.62,12.75  "></polygon>
	<circle class="st3" cx="26.15" cy="61.26" r="5.54"></circle>
	<path class="st1" d="M26.15,40.72V8.81c0-3.29,2.67-5.96,5.96-5.96H81.8l9.82,9.4V86.9c0,3.29-2.67,5.96-5.96,5.96H48.41"></path>
</g>
</svg>