<svg xmlns="http://www.w3.org/2000/svg" xmlns:xlink="http://www.w3.org/1999/xlink" id="Layer_1" x="0px" y="0px" viewBox="0 0 100 100" style="enable-background:new 0 0 100 100;" xml:space="preserve">
<style type="text/css">
	.st0{fill:#77DCB4;}
	.st1{fill:none;stroke:#77DCB4;stroke-width:2;stroke-linecap:round;stroke-miterlimit:10;}
	.st2{fill:none;stroke:#000000;stroke-miterlimit:10;}
</style>
<g>
	<rect x="14.63" y="14.02" class="st0" width="30.38" height="12.28"></rect>
	<rect x="57.06" y="18.75" class="st0" width="30.38" height="7.55"></rect>
	<rect x="14.63" y="41.28" class="st0" width="30.38" height="12.28"></rect>
	<rect x="14.63" y="70.37" class="st0" width="30.38" height="12.28"></rect>
	<rect x="56.96" y="41.28" class="st0" width="30.38" height="12.28"></rect>
	<path d="M2.74,50.62c0.2-0.49,0.36-1,0.6-1.46c1.03-1.92,2.63-3,4.83-3.08c1.31-0.04,2.63-0.01,4.08-0.01c0-0.8-0.01-1.51,0-2.22   c0.03-2.68,1.49-4.14,4.15-4.15c8.89,0,17.78,0,26.67,0c2.64,0,4.13,1.51,4.14,4.16c0,0.69,0,1.38,0,2.13c2.52,0,4.98,0,7.56,0   c0-0.82-0.01-1.63,0-2.43c0.03-2.28,1.58-3.85,3.87-3.86c9.08-0.02,18.16-0.01,27.23,0c2.22,0,3.73,1.48,3.83,3.69   c0.04,0.84,0.01,1.69,0.01,2.58c1.56,0,3.03,0.12,4.48-0.04c1.33-0.15,2.21-1.3,2.21-2.66c0.02-6.41,0.02-12.82,0-19.22   c0-1.46-1.02-2.61-2.48-2.73c-1.34-0.11-2.69-0.02-4.2-0.02c0,0.75,0.01,1.45,0,2.16c-0.02,2.68-1.48,4.15-4.14,4.15   c-8.89,0-17.78,0-26.67,0c-2.65,0-4.14-1.5-4.15-4.14c0-0.69,0-1.38,0-2.13c-2.52,0-4.98,0-7.56,0c0,0.8,0.01,1.57,0,2.35   c-0.03,2.35-1.56,3.92-3.89,3.92c-9.05,0.01-18.09,0.01-27.14,0c-2.32,0-3.87-1.48-3.91-3.79c-0.05-2.64-0.05-5.28,0-7.92   c0.04-2.33,1.57-3.76,3.92-3.76c9.02-0.01,18.03-0.01,27.05,0c2.47,0,3.96,1.52,3.97,4.01c0,0.72,0,1.43,0,2.22   c2.53,0,4.99,0,7.56,0c0-0.82-0.01-1.63,0-2.44c0.04-2.24,1.57-3.78,3.81-3.79c3.36-0.02,6.72-0.01,10.08,0   c1.04,0,1.67,0.52,1.7,1.36c0.03,0.86-0.64,1.46-1.71,1.46c-3.17,0.01-6.35,0-9.52,0.01c-1.38,0-1.54,0.15-1.54,1.49   c0,2.29,0,4.59,0,6.88c0,1.23,0.21,1.45,1.4,1.45c8.83,0,17.65,0,26.48,0c1.19,0,1.41-0.2,1.42-1.34c0.01-2.39,0.01-4.77,0-7.16   c0-1.11-0.22-1.32-1.33-1.32c-3.11-0.01-6.22,0-9.33,0c-0.31,0-0.64,0.02-0.94-0.05c-0.77-0.19-1.2-0.69-1.13-1.5   c0.07-0.76,0.53-1.25,1.28-1.25c3.67-0.02,7.35-0.06,11.02,0.02c1.66,0.03,3.03,1.49,3.18,3.19c0.09,0.96,0.02,1.94,0.02,3.07   c1.22,0,2.35-0.08,3.46,0.02c1.02,0.09,2.1,0.2,3,0.63c2.01,0.95,3.08,2.67,3.09,4.9c0.04,6.44,0.04,12.88,0.01,19.32   c-0.02,3.11-2.44,5.49-5.6,5.57c-1.25,0.03-2.5,0.01-3.91,0.01c0,0.81,0.01,1.55,0,2.28c-0.04,2.57-1.48,4.02-4.06,4.02   c-8.95,0.01-17.9,0.01-26.86,0c-2.54,0-4.02-1.52-4.03-4.05c0-0.72,0-1.43,0-2.19c-2.53,0-4.97,0-7.56,0c0,0.75,0.01,1.52,0,2.29   c-0.02,2.43-1.5,3.95-3.94,3.96c-9.02,0.02-18.03,0.02-27.05,0c-2.47,0-3.91-1.46-3.96-3.92c-0.02-0.75,0-1.5,0-2.33   c-1.54,0-3.02-0.11-4.47,0.03c-1.37,0.13-2.22,1.39-2.22,2.95c-0.01,4.59,0,9.17,0,13.76c0,2.04-0.01,4.08,0,6.13   c0.01,1.87,1.1,3,2.96,3.06c1,0.03,2.01-0.01,3.02,0.01c0.53,0.02,0.74-0.18,0.72-0.71c-0.03-0.6-0.02-1.19,0-1.79   c0.07-2.38,1.57-3.85,3.95-3.85c8.51-0.01,17.03,0,25.54,0c0.57,0,1.13-0.01,1.7,0c2.16,0.04,3.71,1.59,3.76,3.76   c0.02,0.81,0,1.63,0,2.51c3.72,0,7.38,0,11.12,0c0.13-0.58,0.24-1.19,0.39-1.8c1.39-5.57,6.55-9.77,12.2-9.94   c6-0.18,11.35,3.5,13.12,9.08c0.14,0.45,0.19,1.03,0.03,1.45c-0.38,0.99-1.78,1.06-2.37,0.15c-0.18-0.28-0.28-0.63-0.39-0.95   c-1.75-4.86-6.79-7.7-11.9-6.7c-4.98,0.98-8.43,5.48-8.25,10.77c0.16,4.88,4.14,9.11,9.14,9.73c4.72,0.58,9.35-2.29,10.99-6.82   c0.09-0.24,0.14-0.49,0.25-0.71c0.34-0.71,0.89-1.05,1.68-0.85c0.74,0.19,1.23,0.93,0.94,1.69c-0.47,1.25-0.97,2.53-1.69,3.65   c-2.91,4.51-8.45,6.76-13.68,5.65c-5.25-1.11-9.36-5.38-10.31-10.66c-0.06-0.31-0.4-0.81-0.61-0.81   c-3.51-0.05-7.03-0.04-10.67-0.04c0,0.83,0.01,1.61,0,2.38c-0.03,2.36-1.54,3.91-3.88,3.92c-9.05,0.01-18.09,0.01-27.14,0   c-2.39,0-3.86-1.47-3.92-3.87c-0.02-0.77,0-1.55,0-2.43c-0.93,0-1.74,0-2.54,0c-4.11,0-5.5-0.92-6.98-4.65   C2.74,65.57,2.74,58.09,2.74,50.62z M29.67,52.37c4.46,0,8.91,0,13.37,0c1.13,0,1.34-0.21,1.34-1.31c0.01-2.42,0.01-4.83,0-7.25   c0-0.99-0.29-1.27-1.3-1.27c-8.88,0-17.77,0-26.65,0c-1.1,0-1.33,0.22-1.34,1.33c-0.01,2.35-0.01,4.71,0,7.06   c0,1.28,0.18,1.45,1.49,1.45C20.94,52.38,25.31,52.37,29.67,52.37z M72.29,42.53c-4.43,0-8.85,0-13.28,0   c-1.15,0-1.4,0.25-1.41,1.36c-0.01,2.39-0.01,4.77,0,7.16c0,1.11,0.21,1.32,1.33,1.32c8.88,0,17.77,0,26.65,0   c1.1,0,1.31-0.22,1.31-1.34c0.01-2.35,0.01-4.71,0-7.06c0-1.23-0.21-1.43-1.43-1.43C81.08,42.53,76.68,42.53,72.29,42.53z    M29.72,24.79c4.43,0,8.85,0,13.28,0c1.15,0,1.38-0.23,1.39-1.37c0.01-2.35,0.01-4.71,0-7.06c0-1.19-0.19-1.39-1.35-1.39   c-8.85,0-17.7,0-26.56,0c-1.19,0-1.38,0.18-1.38,1.36c-0.01,2.35-0.01,4.71,0,7.06c0,1.21,0.21,1.4,1.44,1.4   C20.93,24.79,25.32,24.79,29.72,24.79z M29.69,71.35c-4.39,0-8.79,0-13.18,0c-1.22,0-1.41,0.19-1.41,1.43   c-0.01,2.35-0.01,4.71,0,7.06c0,1.12,0.22,1.33,1.32,1.33c8.88,0,17.77,0,26.65,0c1.09,0,1.32-0.23,1.32-1.33   c0.01-2.35,0-4.71,0-7.06c0-1.21-0.22-1.43-1.42-1.43C38.54,71.35,34.12,71.35,29.69,71.35z"></path>
	<path d="M72.3,57.79c1.16,0,2.32-0.01,3.48,0c1.03,0.01,1.63,0.55,1.64,1.41c0,0.86-0.6,1.41-1.63,1.41c-2.35,0.01-4.7,0.01-7.05,0   c-1.01-0.01-1.65-0.57-1.65-1.4c0-0.83,0.64-1.4,1.64-1.42C69.92,57.77,71.11,57.79,72.3,57.79z"></path>
	<path d="M29.79,60.61c-1.22,0-2.44,0.02-3.66,0c-0.96-0.02-1.54-0.56-1.55-1.39c-0.01-0.84,0.57-1.41,1.52-1.42   c2.41-0.02,4.82-0.02,7.23,0c0.94,0.01,1.56,0.6,1.57,1.4c0.01,0.81-0.61,1.4-1.55,1.42C32.17,60.63,30.98,60.61,29.79,60.61z"></path>
	<path d="M29.68,33.04c-1.16,0-2.32,0.02-3.47-0.01c-1.04-0.03-1.62-0.56-1.62-1.43c0-0.88,0.57-1.38,1.64-1.38   c2.35-0.01,4.69-0.01,7.04,0c1.02,0.01,1.65,0.56,1.64,1.4c-0.01,0.82-0.64,1.39-1.66,1.41C32.06,33.06,30.87,33.04,29.68,33.04z"></path>
	<path d="M72.22,33.04c-1.13,0-2.25,0.01-3.38,0c-1.09-0.02-1.75-0.56-1.75-1.42c-0.01-0.86,0.63-1.4,1.73-1.4   c2.32-0.01,4.63-0.01,6.95,0c1.07,0.01,1.64,0.51,1.64,1.38c0,0.87-0.58,1.41-1.62,1.43C74.6,33.06,73.41,33.04,72.22,33.04z"></path>
	<path d="M29.79,86.6c1.19,0,2.38-0.01,3.57,0c0.94,0.02,1.55,0.59,1.55,1.4c-0.01,0.77-0.6,1.39-1.47,1.4   c-2.47,0.03-4.95,0.03-7.42,0c-0.89-0.01-1.43-0.62-1.43-1.42c0-0.84,0.57-1.37,1.54-1.39C27.35,86.59,28.57,86.6,29.79,86.6z"></path>
	<g>
		<path class="st1" d="M65.51,77.24l3.53,3.72c0.43,0.4,1.09,0.38,1.51-0.03l6.95-6.53"></path>
		<g>
			<path class="st2" d="M69.49,81.89c-0.6,0-1.19-0.23-1.64-0.68l-2.97-2.97c-0.39-0.39-0.39-1.02,0-1.41s1.02-0.39,1.41,0     l2.97,2.97c0.12,0.12,0.32,0.13,0.45,0.01l7.03-6.42c0.41-0.37,1.04-0.34,1.41,0.06c0.37,0.41,0.34,1.04-0.06,1.41l-7.03,6.42     C70.62,81.69,70.05,81.89,69.49,81.89z"></path>
		</g>
	</g>
</g>
</svg>